# xmcd
#
# Track frame offsets: 
#        150
#        12852
#        26880
#        38602
#        49780
#        63148
#        78164
#        89099
#        100578
#        115176
#        128131
#
# Disc length: 1890 seconds
#
# Revision: 0
# Processed by: cddbd v1.5.2PL0 Copyright (c) Steve Scherf et al.
# Submitted via: ExactAudioCopy v0.95b3
#
DISCID=8007600b
DTITLE=Smokey Robinson and The Miracles  - Away We A Go-Go
DYEAR=1900
DGENRE=
TTITLE0=Whole Lot Of Shakin' In My Heart (Since I Met You)
TTITLE1=You Don't Have To Say You Love Me
TTITLE2=(Come 'Round Here) I'm The One You Need
TTITLE3=Save Me
TTITLE4=Oh Be My Love
TTITLE5=Can You Love A Poor Boy
TTITLE6=Beauty Is Only Skin Deep
TTITLE7=I Just Don't Know What To Do With Myself
TTITLE8=Baby, Baby
TTITLE9=Walk On By
TTITLE10=Swept For You Baby
EXTD=
EXTT0=
EXTT1=
EXTT2=
EXTT3=
EXTT4=
EXTT5=
EXTT6=
EXTT7=
EXTT8=
EXTT9=
EXTT10=
PLAYORDER=
